<svg xmlns="http://www.w3.org/2000/svg" viewBox="0 0 180 130" role="img" aria-labelledby="t"><title id="t">Sector collaboration and professional networks</title><g fill="none" stroke-linecap="round" stroke-linejoin="round"><path d="M15 16h48M15 16v35M165 114h-48M165 114V79" stroke="#ff5e14" stroke-width="3"/><path d="M55 47 78 66l-15 16-24-21 16-14Zm70 0-23 19 15 16 24-21-16-14Z" stroke="#0b3971" stroke-width="4"/><path d="m78 66 13-10 13 10 13 16-10 10-11-8-9 8-10-8-14-2" stroke="#0b3971" stroke-width="4"/><path d="m84 81 12 10M94 72l13 10" stroke="#ff5e14" stroke-width="3"/><path d="M42 103h96M53 103v-9M127 103v-9" stroke="#ff5e14" stroke-width="4"/></g></svg>